<?xml version="1.0" encoding="utf-8"?>
<!-- Generator: Adobe Illustrator 23.0.4, SVG Export Plug-In . SVG Version: 6.00 Build 0)  -->
<svg version="1.1" id="Ebene_1" xmlns="http://www.w3.org/2000/svg" xmlns:xlink="http://www.w3.org/1999/xlink" x="0px" y="0px"
	 viewBox="0 0 340.16 170.08" style="enable-background:new 0 0 340.16 170.08;" xml:space="preserve">
<style type="text/css">
	.st0{fill:#555756;}
	.st1{fill:#252624;}
</style>
<g>
	<g>
		<rect x="30.78" y="112.73" class="st0" width="7.37" height="32.59"/>
		<path class="st0" d="M63.87,124.24c0,3.84,0.59,8.41,0.94,11.86h-0.2l-3.22-7.16l-8.5-16.21h-7.55v32.59h7.02v-11.57
			c0-3.84-0.59-8.21-0.94-11.8h0.2l3.22,7.12l8.5,16.25h7.55v-32.59h-7.02V124.24z"/>
		<polygon class="st0" points="77.08,145.32 84.45,145.32 84.45,132.65 95.73,132.65 95.73,126.47 84.45,126.47 84.45,118.91 
			97.65,118.91 97.65,112.73 77.08,112.73 		"/>
		<path class="st0" d="M115.54,112.13c-8.79,0-14.8,6.11-14.8,16.75s6.01,17.04,14.8,17.04c8.79,0,14.8-6.39,14.8-17.04
			C130.34,118.28,124.33,112.13,115.54,112.13z M115.54,139.56c-4.45,0-7.25-4.14-7.25-10.67c0-6.53,2.8-10.39,7.25-10.39
			c4.45,0,7.25,3.86,7.25,10.39C122.79,135.42,119.99,139.56,115.54,139.56z"/>
		<path class="st0" d="M159.3,122.88c0-7.75-5.67-10.15-12.58-10.15h-11.74v32.59h7.37v-11.73h4.05l6.22,11.73h8.25l-7.38-13.04
			C156.97,130.71,159.3,127.67,159.3,122.88z M142.35,118.58h3.77c3.88,0,5.96,1.08,5.96,4.3c0,3.21-2.08,4.86-5.96,4.86h-3.77
			V118.58z"/>
		<path class="st0" d="M183.39,127.21c-0.65,1.92-1.21,4.01-1.86,6.02h-0.2c-0.65-2.01-1.22-4.09-1.88-6.02l-5.29-14.48h-8.04v32.59
			h6.61v-11.96c0-3.18-0.59-7.92-0.94-11.07h0.2l2.6,7.71l4.62,12.49h4.09l4.61-12.49l2.67-7.71h0.2c-0.35,3.15-0.94,7.9-0.94,11.07
			v11.96h6.71v-32.59h-8.04L183.39,127.21z"/>
		<path class="st0" d="M210.79,112.73l-10.24,32.59h7.53l2.01-7.76h9.94l2.01,7.76h7.8l-10.23-32.59H210.79z M211.59,131.83
			l0.78-3.02c0.91-3.26,1.78-7.07,2.56-10.51h0.2c0.87,3.4,1.74,7.25,2.65,10.51l0.78,3.02H211.59z"/>
		<polygon class="st0" points="227.64,118.91 236.61,118.91 236.61,145.32 243.97,145.32 243.97,118.91 252.94,118.91 
			252.94,112.73 227.64,112.73 		"/>
		<polygon class="st0" points="264.9,131.63 276.01,131.63 276.01,125.45 264.9,125.45 264.9,118.91 277.95,118.91 277.95,112.73 
			257.53,112.73 257.53,145.32 278.45,145.32 278.45,139.14 264.9,139.14 		"/>
		<path class="st0" d="M300.36,128.9l8.48-16.17h-7.86l-2.59,6.16c-0.65,1.5-1.33,3.18-2.09,5.22h-0.2
			c-0.93-2.05-1.63-3.72-2.37-5.22l-2.83-6.16h-8.21l8.48,15.82l-9.01,16.77h7.86l3.05-6.65c0.74-1.68,1.47-3.37,2.24-5.37h0.2
			c0.87,2,1.62,3.68,2.44,5.37l3.22,6.65h8.21L300.36,128.9z"/>
	</g>
	<path class="st0" d="M171.32,24.16h6.93l-14.54,62.83h-6.93L171.32,24.16z"/>
	<g>
		<path class="st0" d="M183.54,63.17L196.24,59l9.77-3.4v-0.29l-9.77-3.4l-12.69-4.17v-8.74l33.22,12.77v7.36l-33.22,12.77V63.17z"
			/>
		<polygon class="st1" points="206.01,55.31 206.01,55.6 196.24,59 183.54,63.17 183.54,71.91 216.77,59.14 216.77,59.14 		"/>
	</g>
	<g>
		<path class="st0" d="M151.71,47.74l-12.69,4.17l-9.77,3.4v0.29l9.77,3.4l12.69,4.17v8.74l-33.22-12.77v-7.36l33.22-12.77V47.74z"
			/>
		<polygon class="st1" points="129.25,55.6 129.25,55.31 139.02,51.91 151.71,47.74 151.71,39.01 118.49,51.78 118.49,51.78 		"/>
	</g>
</g>
</svg>
